<svg width="107" height="109" viewBox="0 0 107 109" fill="none" xmlns="http://www.w3.org/2000/svg">
<path d="M68.256 0.623993C68 2.16 67.616 7.15199 67.616 8.688C67.232 17.008 67.488 41.712 67.616 51.952L57.888 46.96C57.888 41.328 57.76 15.856 57.376 8.81599C57.12 5.35999 56.736 1.77599 56.48 0.623993H68.256ZM0.160001 18.544C17.568 18.288 49.568 17.136 69.28 17.136C84.896 17.136 100.768 17.136 106.784 17.264L106.656 26.736C99.488 26.352 87.968 26.096 69.152 26.096C47.136 26.096 19.744 26.992 0.416 28.4L0.160001 18.544ZM67.36 55.664C67.36 72.816 59.424 81.392 47.776 81.392C37.024 81.392 26.656 73.84 26.656 59.888C26.656 47.216 37.152 37.744 49.312 37.744C64.16 37.744 71.712 48.752 71.712 63.472C71.712 80.88 63.264 100.08 33.568 108.912L24.992 100.592C48.288 95.088 61.856 83.696 61.856 62.576C61.856 51.056 56.224 46.192 49.312 46.192C42.528 46.192 36.256 51.44 36.256 59.76C36.256 67.824 42.272 72.432 49.312 72.432C57.248 72.432 62.368 65.776 60.32 52.08L67.36 55.664Z" fill="white"/>
</svg>
